<svg xmlns="http://www.w3.org/2000/svg" viewBox="0 0 512 512">
    <path fill="#2563eb" d="M256 0C114.6 0 0 114.6 0 256s114.6 256 256 256s256-114.6 256-256S397.4 0 256 0zM256 400c-18 0-32-14-32-32s14-32 32-32s32 14 32 32S274 400 256 400zM325.1 258L280 286V288c0 13-11 24-24 24S232 301 232 288V272c0-8 4-16 12-21l57.3-34.3c8.1-4.9 13.7-14 13.7-24.7c0-15.9-12.9-28.9-28.9-28.9H248c-15.9 0-28.9 12.9-28.9 28.9c0 8.8-7.2 16-16 16s-16-7.2-16-16c0-33.5 27.3-60.9 60.9-60.9h38.1c33.5 0 60.9 27.3 60.9 60.9C347 226 339.1 245 325.1 258z"/>
</svg>